<svg width="37" height="36" viewBox="0 0 37 36" fill="none" xmlns="http://www.w3.org/2000/svg">
<g clip-path="url(#clip0_61_204)">
<path d="M36.261 15.1749L32.6722 7.99456C32.54 7.73027 32.3571 7.49462 32.1338 7.30106C31.9105 7.1075 31.6513 6.95982 31.3709 6.86645C31.0905 6.77308 30.7945 6.73585 30.4998 6.7569C30.205 6.77794 29.9173 6.85684 29.653 6.98909L26.1557 8.73706L18.7883 6.78799C18.5993 6.7388 18.4008 6.7388 18.2118 6.78799L10.8444 8.73706L7.34709 6.98909C7.08283 6.85684 6.79511 6.77794 6.50035 6.7569C6.2056 6.73585 5.90959 6.77308 5.62922 6.86645C5.34885 6.95982 5.08962 7.1075 4.86634 7.30106C4.64305 7.49462 4.46008 7.73027 4.32787 7.99456L0.739123 15.1735C0.606874 15.4377 0.527975 15.7254 0.506933 16.0202C0.48589 16.315 0.523116 16.611 0.616485 16.8913C0.709853 17.1717 0.857535 17.4309 1.0511 17.6542C1.24466 17.8775 1.48031 18.0605 1.74459 18.1927L5.54147 20.0925L13.3447 25.6655C13.4598 25.7472 13.589 25.8068 13.7258 25.8413L22.7258 28.0913C22.9143 28.1385 23.1118 28.1362 23.2991 28.0844C23.4864 28.0327 23.6571 27.9333 23.7946 27.796L31.5388 20.0503L35.2541 18.1927C35.7875 17.9257 36.193 17.4578 36.3816 16.8919C36.5701 16.326 36.5262 15.7084 36.2596 15.1749H36.261ZM28.5421 19.8675L23.7032 15.9919C23.4864 15.8183 23.2131 15.731 22.9358 15.7468C22.6585 15.7627 22.3969 15.8805 22.2013 16.0777C19.6968 18.6005 16.9054 18.2813 15.1251 17.1563L21.2057 11.25H25.679L29.5054 18.9014L28.5421 19.8675ZM6.34022 9.00003L9.21881 10.4372L5.62303 17.6161L2.75006 16.1803L6.34022 9.00003ZM22.6527 25.7527L14.481 23.7108L7.56225 18.7692L11.4997 10.8942L18.5001 9.0394L19.8782 9.40362L13.5501 15.5461L13.5388 15.5588C13.3006 15.797 13.1189 16.0856 13.0072 16.4035C12.8954 16.7213 12.8565 17.0601 12.8932 17.395C12.9299 17.7298 13.0414 18.0522 13.2193 18.3383C13.3972 18.6243 13.6371 18.8667 13.9213 19.0477C16.8126 20.8941 20.3015 20.5946 23.0493 18.3446L26.9376 21.4678L22.6527 25.7527ZM31.3715 17.6147L27.7827 10.4428L30.6599 9.00003L34.2501 16.1803L31.3715 17.6147ZM19.0316 30.6464C18.9708 30.8896 18.8306 31.1055 18.6332 31.2599C18.4357 31.4142 18.1924 31.4983 17.9418 31.4986C17.8493 31.4987 17.7572 31.4873 17.6676 31.4649L11.8077 29.9996C11.6707 29.9657 11.5413 29.906 11.4266 29.8238L7.72115 27.1772C7.49332 26.9983 7.34326 26.7384 7.30224 26.4517C7.26121 26.1649 7.33238 25.8734 7.50092 25.6378C7.66947 25.4022 7.92239 25.2407 8.20703 25.1869C8.49167 25.1331 8.78608 25.1912 9.02897 25.3491L12.5601 27.8719L18.2188 29.2838C18.5082 29.3562 18.757 29.5405 18.9105 29.7963C19.064 30.0521 19.1096 30.3584 19.0372 30.6478L19.0316 30.6464Z" fill="white"/>
</g>
<defs>
<clipPath id="clip0_61_204">
<rect width="36" height="36" fill="white" transform="translate(0.5)"/>
</clipPath>
</defs>
</svg>
