<svg width="37" height="36" viewBox="0 0 37 36" fill="none" xmlns="http://www.w3.org/2000/svg">
<g clip-path="url(#clip0_61_174)">
<path d="M1.625 34.8749H35.375M27.3965 34.8749H9.6035L7.2905 24.4214C7.23969 24.1948 7.23557 23.9603 7.27838 23.732C7.32119 23.5038 7.41004 23.2867 7.5395 23.0939C7.65692 22.9134 7.81672 22.7643 8.00497 22.6597C8.19322 22.5552 8.4042 22.4982 8.6195 22.4939H28.3805C28.5958 22.4982 28.8068 22.5552 28.995 22.6597C29.1833 22.7643 29.3431 22.9134 29.4605 23.0939C29.59 23.2867 29.6788 23.5038 29.7216 23.732C29.7644 23.9603 29.7603 24.1948 29.7095 24.4214L27.3965 34.8749Z" stroke="white" stroke-width="2.25" stroke-linecap="round" stroke-linejoin="round"/>
<path d="M13.1675 4.16992C14.1258 5.16365 15.2745 5.95407 16.5451 6.49399C17.8156 7.03392 19.182 7.31227 20.5625 7.31242C21.962 7.31242 23.3465 7.02742 24.632 6.47542M16.25 28.1249C16.25 28.7217 16.487 29.294 16.909 29.7159C17.3309 30.1379 17.9032 30.3749 18.5 30.3749C19.0967 30.3749 19.669 30.1379 20.091 29.7159C20.5129 29.294 20.75 28.7217 20.75 28.1249C20.75 27.5282 20.5129 26.9559 20.091 26.5339C19.669 26.112 19.0967 25.8749 18.5 25.8749C17.9032 25.8749 17.3309 26.112 16.909 26.5339C16.487 26.9559 16.25 27.5282 16.25 28.1249Z" stroke="white" stroke-width="2.25" stroke-linecap="round" stroke-linejoin="round"/>
<path d="M26 19.125C25.0605 18.0627 23.906 17.2121 22.6131 16.6296C21.3201 16.047 19.9181 15.7458 18.5 15.7458C17.0819 15.7458 15.6799 16.047 14.3869 16.6296C13.094 17.2121 11.9395 18.0627 11 19.125M12.3125 7.3125C12.3125 8.95353 12.9644 10.5273 14.1248 11.6877C15.2852 12.8481 16.859 13.5 18.5 13.5C20.141 13.5 21.7148 12.8481 22.8752 11.6877C24.0356 10.5273 24.6875 8.95353 24.6875 7.3125C24.6875 5.67147 24.0356 4.09766 22.8752 2.93728C21.7148 1.7769 20.141 1.125 18.5 1.125C16.859 1.125 15.2852 1.7769 14.1248 2.93728C12.9644 4.09766 12.3125 5.67147 12.3125 7.3125Z" stroke="white" stroke-width="2.25" stroke-linecap="round" stroke-linejoin="round"/>
</g>
<defs>
<clipPath id="clip0_61_174">
<rect width="36" height="36" fill="white" transform="translate(0.5)"/>
</clipPath>
</defs>
</svg>
