<svg width="37" height="36" viewBox="0 0 37 36" fill="none" xmlns="http://www.w3.org/2000/svg">
<path d="M32 10.5C32.3824 10.5004 32.7501 10.6468 33.0281 10.9093C33.3061 11.1717 33.4734 11.5304 33.4958 11.9121C33.5182 12.2938 33.394 12.6696 33.1487 12.9627C32.9033 13.2559 32.5552 13.4443 32.1755 13.4895L32 13.5V28.5C32.3824 28.5004 32.7501 28.6468 33.0281 28.9093C33.3061 29.1717 33.4734 29.5304 33.4958 29.9121C33.5182 30.2938 33.394 30.6696 33.1487 30.9627C32.9033 31.2559 32.5552 31.4443 32.1755 31.4895L32 31.5H5.00005C4.61773 31.4996 4.25 31.3532 3.97199 31.0907C3.69399 30.8283 3.52669 30.4696 3.50429 30.0879C3.48188 29.7062 3.60606 29.3304 3.85144 29.0373C4.09683 28.7441 4.4449 28.5557 4.82455 28.5105L5.00005 28.5V13.5C4.61773 13.4996 4.25 13.3532 3.97199 13.0907C3.69399 12.8283 3.52669 12.4696 3.50429 12.0879C3.48188 11.7062 3.60606 11.3304 3.85144 11.0373C4.09683 10.7441 4.4449 10.5557 4.82455 10.5105L5.00005 10.5H32ZM29 13.5H8.00005V28.5H11V18C11 17.6022 11.1581 17.2206 11.4394 16.9393C11.7207 16.658 12.1022 16.5 12.5 16.5C12.8979 16.5 13.2794 16.658 13.5607 16.9393C13.842 17.2206 14 17.6022 14 18V28.5H17V18C17 17.6022 17.1581 17.2206 17.4394 16.9393C17.7207 16.658 18.1022 16.5 18.5 16.5C18.8979 16.5 19.2794 16.658 19.5607 16.9393C19.842 17.2206 20 17.6022 20 18V28.5H23V18C23 17.6022 23.1581 17.2206 23.4394 16.9393C23.7207 16.658 24.1022 16.5 24.5 16.5C24.8979 16.5 25.2794 16.658 25.5607 16.9393C25.842 17.2206 26 17.6022 26 18V28.5H29V13.5ZM27.5 6C27.8979 6 28.2794 6.15804 28.5607 6.43934C28.842 6.72064 29 7.10218 29 7.5C29 7.89782 28.842 8.27936 28.5607 8.56066C28.2794 8.84196 27.8979 9 27.5 9H9.50005C9.10222 9 8.72069 8.84196 8.43939 8.56066C8.15808 8.27936 8.00005 7.89782 8.00005 7.5C8.00005 7.10218 8.15808 6.72064 8.43939 6.43934C8.72069 6.15804 9.10222 6 9.50005 6H27.5Z" fill="white"/>
</svg>
