<svg width="37" height="37" viewBox="0 0 37 37" fill="none" xmlns="http://www.w3.org/2000/svg">
<path d="M19.6251 4.625V7.25H22.5876C23.1141 7.25 23.6286 7.409 24.0636 7.7045L26.6091 9.4355C26.6721 9.4775 26.7421 9.499 26.8191 9.5H32.9721C33.2705 9.5 33.5566 9.61853 33.7676 9.8295C33.9786 10.0405 34.0971 10.3266 34.0971 10.625C34.0971 10.9234 33.9786 11.2095 33.7676 11.4205C33.5566 11.6315 33.2705 11.75 32.9721 11.75H30.6051L35.6541 23.27C35.7551 23.5003 35.776 23.7579 35.7135 24.0015C35.651 24.2451 35.5086 24.4608 35.3091 24.614C35.1591 24.725 35.0041 24.828 34.8441 24.923C34.4644 25.1514 34.0683 25.3514 33.6591 25.5215C32.3023 26.0889 30.8458 26.3791 29.3751 26.375C27.9049 26.3814 26.4484 26.0916 25.0926 25.523C24.6834 25.3525 24.2873 25.1519 23.9076 24.923C23.7481 24.8315 23.5943 24.7303 23.4471 24.62L23.4396 24.614C23.2401 24.4608 23.0978 24.2451 23.0352 24.0015C22.9727 23.7579 22.9936 23.5003 23.0946 23.27L28.1466 11.75H26.8176C26.2911 11.75 25.7766 11.591 25.3416 11.2955L22.7961 9.5645C22.7341 9.52252 22.661 9.50005 22.5861 9.5H19.6251V31.25H26.3556C26.654 31.25 26.9401 31.3685 27.1511 31.5795C27.3621 31.7905 27.4806 32.0766 27.4806 32.375C27.4806 32.6734 27.3621 32.9595 27.1511 33.1705C26.9401 33.3815 26.654 33.5 26.3556 33.5H10.6446C10.3463 33.5 10.0601 33.3815 9.84912 33.1705C9.63815 32.9595 9.51962 32.6734 9.51962 32.375C9.51962 32.0766 9.63815 31.7905 9.84912 31.5795C10.0601 31.3685 10.3463 31.25 10.6446 31.25H17.3751V9.5H14.4126C14.3377 9.50005 14.2646 9.52252 14.2026 9.5645L11.6586 11.2955C11.2236 11.591 10.7091 11.75 10.1826 11.75H8.85362L13.9056 23.27C14.0034 23.4938 14.0257 23.7433 13.9691 23.9809C13.9126 24.2185 13.7802 24.4313 13.5921 24.587C13.4721 24.6845 13.3521 24.776 13.1271 24.9215C12.748 25.1675 12.3509 25.3846 11.9391 25.571C10.5847 26.1875 9.11326 26.5047 7.62512 26.501C6.13698 26.5047 4.66554 26.1875 3.31112 25.571C2.89937 25.3846 2.50225 25.1675 2.12312 24.9215C1.96346 24.8184 1.80878 24.7078 1.65962 24.59C1.47259 24.4328 1.34102 24.2196 1.28431 23.982C1.2276 23.7443 1.24874 23.4947 1.34462 23.27L6.39512 11.75H4.02962C3.73125 11.75 3.4451 11.6315 3.23412 11.4205C3.02315 11.2095 2.90462 10.9234 2.90462 10.625C2.90462 10.3266 3.02315 10.0405 3.23412 9.8295C3.4451 9.61853 3.73125 9.5 4.02962 9.5H10.1826C10.2586 9.5 10.3291 9.4785 10.3941 9.4355L12.9366 7.7045C13.3716 7.4075 13.8876 7.25 14.4141 7.25H17.3751V4.625C17.3751 4.32663 17.4936 4.04048 17.7046 3.8295C17.9156 3.61853 18.2018 3.5 18.5001 3.5C18.7985 3.5 19.0846 3.61853 19.2956 3.8295C19.5066 4.04048 19.6251 4.32663 19.6251 4.625ZM3.78962 23.297C4.96987 23.9263 6.28759 24.2535 7.62512 24.2495C8.96265 24.2535 10.2804 23.9263 11.4606 23.297L7.62512 14.552L3.78962 23.297ZM25.5546 23.261C25.6776 23.321 25.8151 23.384 25.9671 23.45C26.7621 23.7845 27.9246 24.125 29.3751 24.125C30.6975 24.1285 32.0035 23.8332 33.1956 23.261L29.3751 14.5505L25.5546 23.261Z" fill="white"/>
</svg>
