<svg width="37" height="36" viewBox="0 0 37 36" fill="none" xmlns="http://www.w3.org/2000/svg">
<path d="M21.125 3C22.0201 3 22.8785 3.35558 23.5115 3.98851C24.1444 4.62145 24.5 5.47989 24.5 6.375V9H28.625C29.2652 9 29.8991 9.1261 30.4906 9.37109C31.082 9.61608 31.6195 9.97517 32.0721 10.4279C32.5248 10.8805 32.8839 11.418 33.1289 12.0094C33.3739 12.6009 33.5 13.2348 33.5 13.875V26.625C33.5 27.2652 33.3739 27.8991 33.1289 28.4906C32.8839 29.082 32.5248 29.6195 32.0721 30.0721C31.6195 30.5248 31.082 30.8839 30.4906 31.1289C29.8991 31.3739 29.2652 31.5 28.625 31.5H8.375C7.08207 31.5 5.84209 30.9864 4.92785 30.0721C4.01361 29.1579 3.5 27.9179 3.5 26.625V13.875C3.5 12.5821 4.01361 11.3421 4.92785 10.4279C5.84209 9.51361 7.08207 9 8.375 9H12.5V6.375C12.5 5.47989 12.8556 4.62145 13.4885 3.98851C14.1215 3.35558 14.9799 3 15.875 3H21.125ZM31.25 20.2305C30.4671 20.7338 29.5557 21.001 28.625 21H21.5C21.5 21.3978 21.342 21.7794 21.0607 22.0607C20.7794 22.342 20.3978 22.5 20 22.5H17C16.6022 22.5 16.2206 22.342 15.9393 22.0607C15.658 21.7794 15.5 21.3978 15.5 21H8.375C7.44425 21.001 6.53292 20.7338 5.75 20.2305V26.625C5.75 28.074 6.926 29.25 8.375 29.25H28.625C29.3212 29.25 29.9889 28.9734 30.4812 28.4812C30.9734 27.9889 31.25 27.3212 31.25 26.625V20.2305ZM8.375 11.25C7.67881 11.25 7.01113 11.5266 6.51884 12.0188C6.02656 12.5111 5.75 13.1788 5.75 13.875V16.125C5.75 17.574 6.926 18.75 8.375 18.75H15.5V18C15.5 17.6022 15.658 17.2206 15.9393 16.9393C16.2206 16.658 16.6022 16.5 17 16.5H20C20.3978 16.5 20.7794 16.658 21.0607 16.9393C21.342 17.2206 21.5 17.6022 21.5 18V18.75H28.625C29.3212 18.75 29.9889 18.4734 30.4812 17.9812C30.9734 17.4889 31.25 16.8212 31.25 16.125V13.875C31.25 13.1788 30.9734 12.5111 30.4812 12.0188C29.9889 11.5266 29.3212 11.25 28.625 11.25H8.375ZM15.875 5.25C15.5766 5.25 15.2905 5.36853 15.0795 5.5795C14.8685 5.79048 14.75 6.07663 14.75 6.375V9H22.25V6.375C22.25 6.07663 22.1315 5.79048 21.9205 5.5795C21.7095 5.36853 21.4234 5.25 21.125 5.25H15.875Z" fill="white"/>
</svg>
