<svg width="37" height="36" viewBox="0 0 37 36" fill="none" xmlns="http://www.w3.org/2000/svg">
<path d="M6.5 15V27.75M12.5 15V27.75M3.5 12.855C3.5 11.0595 4.223 9.96 5.72 9.126L11.885 5.6955C15.1145 3.9 16.73 3 18.5 3C20.27 3 21.8855 3.9 25.115 5.6955L31.28 9.126C32.7755 9.96 33.5 11.0595 33.5 12.855C33.5 13.341 33.5 13.5855 33.4475 13.785C33.1685 14.835 32.216 15.0015 31.2965 15.0015H5.7035C4.784 15.0015 3.833 14.8365 3.5525 13.785C3.5 13.584 3.5 13.341 3.5 12.855Z" stroke="white" stroke-width="2.25"/>
<path d="M17 27.75H8C6.80653 27.75 5.66193 28.2241 4.81802 29.068C3.97411 29.9119 3.5 31.0565 3.5 32.25C3.5 32.4489 3.57902 32.6397 3.71967 32.7803C3.86032 32.921 4.05109 33 4.25 33H17" stroke="white" stroke-width="2.25" stroke-linecap="round"/>
<path d="M32.75 21.75L22.25 32.25" stroke="white" stroke-width="2.25" stroke-linecap="round" stroke-linejoin="round"/>
<path d="M23.375 24C23.9963 24 24.5 23.4963 24.5 22.875C24.5 22.2537 23.9963 21.75 23.375 21.75C22.7537 21.75 22.25 22.2537 22.25 22.875C22.25 23.4963 22.7537 24 23.375 24Z" stroke="white" stroke-width="2.25"/>
<path d="M31.625 32.25C32.2463 32.25 32.75 31.7463 32.75 31.125C32.75 30.5037 32.2463 30 31.625 30C31.0037 30 30.5 30.5037 30.5 31.125C30.5 31.7463 31.0037 32.25 31.625 32.25Z" stroke="white" stroke-width="2.25"/>
</svg>
