<svg width="37" height="37" viewBox="0 0 37 37" fill="none" xmlns="http://www.w3.org/2000/svg">
<path d="M9.5 9.5H11.75V14H9.5V9.5ZM9.5 16.25H11.75V20.75H9.5V16.25ZM16.25 9.5H18.5V14H16.25V9.5ZM16.25 16.25H18.5V20.75H16.25V16.25ZM9.5 23H11.75V27.5H9.5V23ZM16.25 23H18.5V27.5H16.25V23Z" fill="white"/>
<path d="M34.25 16.25C34.25 15.6533 34.0129 15.081 33.591 14.659C33.169 14.2371 32.5967 14 32 14H25.25V5C25.25 4.40326 25.0129 3.83097 24.591 3.40901C24.169 2.98705 23.5967 2.75 23 2.75H5C4.40326 2.75 3.83097 2.98705 3.40901 3.40901C2.98705 3.83097 2.75 4.40326 2.75 5V34.25H34.25V16.25ZM5 5H23V32H5V5ZM25.25 32V16.25H32V32H25.25Z" fill="white"/>
</svg>
