<svg width="771" height="131" viewBox="0 0 771 131" fill="none" xmlns="http://www.w3.org/2000/svg" xmlns:xlink="http://www.w3.org/1999/xlink">
<g clip-path="url(#clip0_33_163)">
<rect width="771" height="131" fill="url(#pattern0_33_163)"/>
<rect width="775" height="131" fill="url(#paint0_linear_33_163)"/>
</g>
<defs>
<linearGradient id="paint0_linear_33_163" x1="2.48724e-09" y1="66" x2="775" y2="65.4935" gradientUnits="userSpaceOnUse">
<stop stop-color="#232925"/>
<stop offset="0.245068" stop-color="#232925" stop-opacity="0"/>
<stop offset="0.495766" stop-color="white" stop-opacity="0"/>
<stop offset="0.720608" stop-color="#232925" stop-opacity="0"/>
<stop offset="1" stop-color="#232925"/>
</linearGradient>
<clipPath id="clip0_33_163">
<rect width="771" height="131" fill="white"/>
</clipPath>
<pattern id="pattern0_33_163" patternUnits="userSpaceOnUse" patternTransform="matrix(75.6 0 0 143.64 0 0)" preserveAspectRatio="none" viewBox="0 0 75.6 143.64" width="1" height="1">
<use xlink:href="#pattern0_33_163_inner" transform="translate(-75.6 0)"/>
<g id="pattern0_33_163_inner">
<path d="M12.7499 2.75V4.5H14.7249C15.0759 4.5 15.4189 4.606 15.7089 4.803L17.4059 5.957C17.4479 5.985 17.4946 5.99933 17.5459 6H21.6479C21.8468 6 22.0376 6.07902 22.1782 6.21967C22.3189 6.36032 22.3979 6.55109 22.3979 6.75C22.3979 6.94891 22.3189 7.13968 22.1782 7.28033C22.0376 7.42098 21.8468 7.5 21.6479 7.5H20.0699L23.4359 15.18C23.5033 15.3336 23.5172 15.5053 23.4755 15.6677C23.4338 15.8301 23.3389 15.9739 23.2059 16.076C23.1059 16.15 23.0026 16.2187 22.8959 16.282C22.6428 16.4343 22.3787 16.5676 22.1059 16.681C21.2014 17.0593 20.2303 17.2527 19.2499 17.25C18.2698 17.2543 17.2988 17.0611 16.3949 16.682C16.1221 16.5683 15.858 16.4346 15.6049 16.282C15.4986 16.221 15.396 16.1535 15.2979 16.08L15.2929 16.076C15.1599 15.9739 15.065 15.8301 15.0233 15.6677C14.9816 15.5053 14.9956 15.3336 15.0629 15.18L18.4309 7.5H17.5449C17.1939 7.5 16.8509 7.394 16.5609 7.197L14.8639 6.043C14.8226 6.01501 14.7738 6.00004 14.7239 6H12.7499V20.5H17.2369C17.4358 20.5 17.6266 20.579 17.7672 20.7197C17.9079 20.8603 17.9869 21.0511 17.9869 21.25C17.9869 21.4489 17.9079 21.6397 17.7672 21.7803C17.6266 21.921 17.4358 22 17.2369 22H6.76292C6.564 22 6.37324 21.921 6.23259 21.7803C6.09193 21.6397 6.01292 21.4489 6.01292 21.25C6.01292 21.0511 6.09193 20.8603 6.23259 20.7197C6.37324 20.579 6.564 20.5 6.76292 20.5H11.2499V6H9.27492C9.225 6.00004 9.17624 6.01501 9.13492 6.043L7.43892 7.197C7.14892 7.394 6.80592 7.5 6.45492 7.5H5.56892L8.93692 15.18C9.00211 15.3292 9.01697 15.4956 8.97927 15.654C8.94156 15.8124 8.85334 15.9542 8.72792 16.058C8.64792 16.123 8.56792 16.184 8.41792 16.281C8.16516 16.445 7.90041 16.5898 7.62592 16.714C6.72297 17.125 5.74201 17.3365 4.74992 17.334C3.75783 17.3365 2.77686 17.125 1.87392 16.714C1.59942 16.5898 1.33467 16.445 1.08192 16.281C0.975475 16.2123 0.872359 16.1385 0.772917 16.06C0.648232 15.9552 0.56052 15.8131 0.522711 15.6547C0.484902 15.4962 0.498997 15.3298 0.562917 15.18L3.92992 7.5H2.35292C2.154 7.5 1.96324 7.42098 1.82259 7.28033C1.68193 7.13968 1.60292 6.94891 1.60292 6.75C1.60292 6.55109 1.68193 6.36032 1.82259 6.21967C1.96324 6.07902 2.154 6 2.35292 6H6.45492C6.50558 6 6.55258 5.98567 6.59592 5.957L8.29092 4.803C8.58092 4.605 8.92492 4.5 9.27592 4.5H11.2499V2.75C11.2499 2.55109 11.3289 2.36032 11.4696 2.21967C11.6102 2.07902 11.801 2 11.9999 2C12.1988 2 12.3896 2.07902 12.5302 2.21967C12.6709 2.36032 12.7499 2.55109 12.7499 2.75ZM2.19292 15.198C2.97975 15.6175 3.85823 15.8357 4.74992 15.833C5.64161 15.8357 6.52009 15.6175 7.30692 15.198L4.74992 9.368L2.19292 15.198ZM16.7029 15.174C16.7849 15.214 16.8766 15.256 16.9779 15.3C17.5079 15.523 18.2829 15.75 19.2499 15.75C20.1315 15.7524 21.0022 15.5555 21.7969 15.174L19.2499 9.367L16.7029 15.174Z" fill="#0B8A36" fill-opacity="0.25"/>
<path d="M47.2501 54.25V52.5H45.2751C44.9241 52.5 44.5811 52.394 44.2911 52.197L42.5941 51.043C42.5521 51.015 42.5054 51.0007 42.4541 51H38.3521C38.1532 51 37.9624 50.921 37.8218 50.7803C37.6811 50.6397 37.6021 50.4489 37.6021 50.25C37.6021 50.0511 37.6811 49.8603 37.8218 49.7197C37.9624 49.579 38.1532 49.5 38.3521 49.5H39.9301L36.5641 41.82C36.4967 41.6664 36.4828 41.4947 36.5245 41.3323C36.5662 41.1699 36.6611 41.0261 36.7941 40.924C36.8941 40.85 36.9974 40.7813 37.1041 40.718C37.3572 40.5657 37.6213 40.4324 37.8941 40.319C38.7986 39.9407 39.7697 39.7473 40.7501 39.75C41.7302 39.7457 42.7012 39.9389 43.6051 40.318C43.8779 40.4317 44.142 40.5654 44.3951 40.718C44.5014 40.779 44.604 40.8465 44.7021 40.92L44.7071 40.924C44.8401 41.0261 44.935 41.1699 44.9767 41.3323C45.0184 41.4947 45.0044 41.6664 44.9371 41.82L41.5691 49.5H42.4551C42.8061 49.5 43.1491 49.606 43.4391 49.803L45.1361 50.957C45.1774 50.985 45.2262 51 45.2761 51H47.2501V36.5H42.7631C42.5642 36.5 42.3734 36.421 42.2328 36.2803C42.0921 36.1397 42.0131 35.9489 42.0131 35.75C42.0131 35.5511 42.0921 35.3603 42.2328 35.2197C42.3734 35.079 42.5642 35 42.7631 35H53.2371C53.436 35 53.6268 35.079 53.7674 35.2197C53.9081 35.3603 53.9871 35.5511 53.9871 35.75C53.9871 35.9489 53.9081 36.1397 53.7674 36.2803C53.6268 36.421 53.436 36.5 53.2371 36.5H48.7501V51H50.7251C50.775 51 50.8238 50.985 50.8651 50.957L52.5611 49.803C52.8511 49.606 53.1941 49.5 53.5451 49.5H54.4311L51.0631 41.82C50.9979 41.6708 50.983 41.5044 51.0207 41.346C51.0584 41.1876 51.1467 41.0458 51.2721 40.942C51.3521 40.877 51.4321 40.816 51.5821 40.719C51.8348 40.555 52.0996 40.4102 52.3741 40.286C53.277 39.875 54.258 39.6635 55.2501 39.666C56.2422 39.6635 57.2231 39.875 58.1261 40.286C58.4006 40.4102 58.6653 40.555 58.9181 40.719C59.0245 40.7877 59.1276 40.8615 59.2271 40.94C59.3518 41.0448 59.4395 41.1869 59.4773 41.3453C59.5151 41.5038 59.501 41.6702 59.4371 41.82L56.0701 49.5H57.6471C57.846 49.5 58.0368 49.579 58.1774 49.7197C58.3181 49.8603 58.3971 50.0511 58.3971 50.25C58.3971 50.4489 58.3181 50.6397 58.1774 50.7803C58.0368 50.921 57.846 51 57.6471 51H53.5451C53.4944 51 53.4474 51.0143 53.4041 51.043L51.7091 52.197C51.4191 52.395 51.0751 52.5 50.7241 52.5H48.7501V54.25C48.7501 54.4489 48.6711 54.6397 48.5304 54.7803C48.3898 54.921 48.199 55 48.0001 55C47.8012 55 47.6104 54.921 47.4698 54.7803C47.3291 54.6397 47.2501 54.4489 47.2501 54.25ZM57.8071 41.802C57.0203 41.3825 56.1418 41.1643 55.2501 41.167C54.3584 41.1643 53.4799 41.3825 52.6931 41.802L55.2501 47.632L57.8071 41.802ZM43.2971 41.826C43.2151 41.786 43.1234 41.744 43.0221 41.7C42.4921 41.477 41.7171 41.25 40.7501 41.25C39.8685 41.2476 38.9978 41.4445 38.2031 41.826L40.7501 47.633L43.2971 41.826Z" fill="#0B8A36" fill-opacity="0.25"/>
<g clip-path="url(#clip1_33_163)">
<path d="M36.8572 22.7829H49.7143M48 22.7829V18.4972H38.5715V22.7829M49.3492 1.71774L43.2035 7.86345C42.8821 8.18493 42.7015 8.62089 42.7015 9.07545C42.7015 9.53002 42.8821 9.96598 43.2035 10.2875L45.9189 13.0029C46.2404 13.3243 46.6763 13.5048 47.1309 13.5048C47.5855 13.5048 48.0214 13.3243 48.3429 13.0029L54.4886 6.85717C54.81 6.53569 54.9905 6.09974 54.9905 5.64517C54.9905 5.1906 54.81 4.75464 54.4886 4.43317L51.7715 1.71774C51.45 1.39636 51.014 1.21582 50.5595 1.21582C50.1049 1.21582 49.6689 1.39636 49.3475 1.71774M51.4286 9.92574L59.1429 17.64" stroke="#0B8A36" stroke-opacity="0.25" stroke-width="1.71429" stroke-linecap="round" stroke-linejoin="round"/>
</g>
<g clip-path="url(#clip2_33_163)">
<path d="M0.857178 55.7829H13.7143M12 55.7829V51.4972H2.57146V55.7829M13.3492 34.7177L7.20346 40.8635C6.88208 41.1849 6.70154 41.6209 6.70154 42.0755C6.70154 42.53 6.88208 42.966 7.20346 43.2875L9.91889 46.0029C10.2404 46.3243 10.6763 46.5048 11.1309 46.5048C11.5855 46.5048 12.0214 46.3243 12.3429 46.0029L18.4886 39.8572C18.81 39.5357 18.9905 39.0997 18.9905 38.6452C18.9905 38.1906 18.81 37.7546 18.4886 37.4332L15.7715 34.7177C15.45 34.3964 15.014 34.2158 14.5595 34.2158C14.1049 34.2158 13.6689 34.3964 13.3475 34.7177M15.4286 42.9257L23.1429 50.64" stroke="#0B8A36" stroke-opacity="0.25" stroke-width="1.71429" stroke-linecap="round" stroke-linejoin="round"/>
</g>
</g>
<use xlink:href="#pattern0_33_163_inner" transform="translate(-37.8 71.82)"/>
<use xlink:href="#pattern0_33_163_inner" transform="translate(37.8 71.82)"/>
</pattern><clipPath id="clip1_33_163">
<rect width="24" height="24" fill="white" transform="translate(36)"/>
</clipPath>
<clipPath id="clip2_33_163">
<rect width="24" height="24" fill="white" transform="translate(0 33)"/>
</clipPath>
</defs>
</svg>
