<svg width="1440" height="201" viewBox="0 0 1440 201" fill="none" xmlns="http://www.w3.org/2000/svg" xmlns:xlink="http://www.w3.org/1999/xlink">
<rect width="1440" height="201" fill="url(#pattern0_179_491)" fill-opacity="0.5"/>
<defs>
<pattern id="pattern0_179_491" patternUnits="userSpaceOnUse" patternTransform="matrix(295 0 0 140 0 0)" preserveAspectRatio="none" viewBox="0 0 295 140" width="1" height="1">
<g id="pattern0_179_491_inner">
<path d="M48.3468 87.3656C49.0558 86.624 49.9039 86.0292 50.8427 85.6152C51.7815 85.2013 52.7926 84.9763 53.8184 84.9531C54.8441 84.93 55.8644 85.1091 56.8209 85.4802C57.7775 85.8513 58.6515 86.4073 59.3932 87.1162C60.1349 87.8251 60.7297 88.6732 61.1437 89.612C61.5576 90.5508 61.7826 91.562 61.8058 92.5877C61.8289 93.6135 61.6498 94.6338 61.2787 95.5903C60.9076 96.5468 60.3516 97.4209 59.6427 98.1626L58.4305 99.431L58.7436 99.7318C59.2629 100.228 59.6793 100.822 59.9691 101.479C60.259 102.136 60.4165 102.844 60.4328 103.562C60.449 104.28 60.3237 104.994 60.0639 105.664C59.8042 106.333 59.4151 106.945 58.9188 107.464L53.9844 112.624C53.8437 112.777 53.674 112.9 53.4853 112.986C53.2966 113.072 53.0926 113.12 52.8852 113.126C52.6778 113.133 52.4712 113.098 52.2775 113.024C52.0837 112.949 51.9067 112.837 51.7567 112.694C51.6067 112.551 51.4867 112.379 51.4038 112.189C51.3209 111.998 51.2768 111.794 51.2739 111.586C51.271 111.379 51.3094 111.173 51.387 110.98C51.4645 110.788 51.5796 110.613 51.7256 110.465L56.66 105.305C56.8728 105.083 57.0396 104.821 57.1511 104.534C57.2625 104.246 57.3162 103.94 57.3092 103.632C57.3023 103.325 57.2347 103.021 57.1104 102.739C56.9861 102.458 56.8075 102.203 56.5849 101.991L56.2702 101.69L39.6749 119.058C39.0663 119.695 38.2906 120.147 37.4367 120.363L26.896 123.034C26.6393 123.099 26.3702 123.098 26.1139 123.031C25.8577 122.964 25.6228 122.832 25.4313 122.649C25.2397 122.466 25.0979 122.238 25.0191 121.985C24.9402 121.732 24.927 121.463 24.9806 121.204L27.1744 110.554C27.3521 109.692 27.769 108.897 28.3775 108.261L48.3468 87.3656ZM57.2337 89.3758C56.335 88.5172 55.1321 88.0507 53.8894 88.0788C52.6468 88.107 51.4662 88.6275 50.6073 89.5259L30.6363 110.421C30.4334 110.633 30.2942 110.898 30.2348 111.185L28.5436 119.391L36.6663 117.333C36.9512 117.261 37.2099 117.11 37.4129 116.897L57.3823 96.0023C58.2409 95.1036 58.7074 93.9006 58.6793 92.658C58.6511 91.4154 58.1322 90.2347 57.2337 89.3758ZM35.3671 128.972C32.1211 128.497 29.4617 126.735 27.9233 125.191L31.6792 124.239C32.806 124.993 34.2352 125.648 35.8206 125.88C38.2276 126.233 41.1649 125.638 44.1901 122.509C45.8868 120.756 47.3203 119.391 48.5434 118.396C49.7405 117.425 50.8573 116.705 51.9178 116.397C53.0916 116.055 54.2423 116.211 55.1904 117.014C56.003 117.7 56.4984 118.734 56.8668 119.747L56.9218 119.899C57.6086 121.794 57.9587 122.76 58.3019 123.353C58.383 123.512 58.494 123.655 58.6287 123.773C58.7703 123.872 58.9287 123.944 59.0961 123.985C59.1025 123.988 59.274 124.039 59.7835 123.764C60.2899 123.49 60.8766 123.035 61.6005 122.426C61.7386 122.312 61.8802 122.193 62.0253 122.068C62.605 121.578 63.2522 121.03 63.8994 120.556C64.7143 119.963 65.6669 119.375 66.7169 119.091C67.117 118.982 67.5437 119.037 67.9033 119.243C68.2629 119.449 68.526 119.79 68.6345 120.19C68.743 120.59 68.6882 121.016 68.4821 121.376C68.276 121.736 67.9355 121.999 67.5355 122.107C67.0322 122.244 66.4441 122.568 65.7445 123.079C65.1941 123.482 64.6604 123.932 64.0899 124.414L63.6069 124.822C62.8937 125.419 62.0879 126.071 61.268 126.514C60.4543 126.953 59.3611 127.333 58.1855 126.975C57.6498 126.821 57.1471 126.57 56.7027 126.233C56.2539 125.87 55.8788 125.423 55.5976 124.919C55.1097 124.075 54.6678 122.855 54.0826 121.235L53.9292 120.812C53.6009 119.91 53.3313 119.533 53.1704 119.397L53.1624 119.39C53.1384 119.364 53.0903 119.31 52.7922 119.398C52.345 119.527 51.6209 119.922 50.5145 120.822C49.4325 121.7 48.0999 122.963 46.4368 124.683C42.7411 128.502 38.8122 129.477 35.3671 128.972Z" fill="#B5FDCB" fill-opacity="0.15"/>
<path d="M257.181 88.4085C258.775 88.4381 260.297 89.0756 261.437 90.1907C262.576 91.3058 263.246 92.8141 263.31 94.407L263.314 94.7738L262.926 115.604L264.488 115.633C265.836 115.658 266.927 116.703 267.036 118.018L267.043 118.285L266.975 121.93C266.946 123.524 266.308 125.046 265.193 126.186C264.078 127.325 262.57 127.995 260.977 128.059L260.61 128.063L239.78 127.674C238.186 127.645 236.664 127.007 235.524 125.892C234.385 124.777 233.715 123.269 233.651 121.676L233.648 121.309L234.036 100.479L230.39 100.412C229.746 100.4 229.128 100.149 228.658 99.7088C228.187 99.2682 227.897 98.6686 227.843 98.0262L227.835 97.7593L227.903 94.1141C227.933 92.5202 228.57 90.9978 229.685 89.8585C230.8 88.7192 232.309 88.0491 233.902 87.9852L234.268 87.9816L257.181 88.4085ZM257.104 92.5744L238.357 92.2252L237.814 121.387C237.803 121.939 238.013 122.473 238.396 122.871C238.78 123.269 239.305 123.498 239.858 123.509C240.41 123.519 240.944 123.309 241.342 122.926C241.74 122.543 241.969 122.017 241.979 121.464L242.047 117.819C242.074 116.382 243.262 115.237 244.7 115.264L258.76 115.526L259.148 94.6962C259.158 94.1437 258.948 93.6098 258.565 93.2119C258.182 92.814 257.656 92.5847 257.104 92.5744ZM262.848 119.769L246.184 119.459L246.145 121.542C246.132 122.271 245.994 122.971 245.753 123.618L260.687 123.897C261.24 123.907 261.774 123.697 262.172 123.314C262.57 122.931 262.799 122.405 262.809 121.852L262.848 119.769ZM248.5 107C249.052 107.01 249.578 107.24 249.962 107.638C250.345 108.035 250.554 108.569 250.544 109.122C250.534 109.674 250.305 110.2 249.907 110.583C249.509 110.967 248.975 111.176 248.422 111.166L244.256 111.088C243.704 111.078 243.178 110.849 242.795 110.451C242.412 110.053 242.202 109.519 242.212 108.967C242.223 108.414 242.452 107.888 242.85 107.505C243.248 107.122 243.782 106.912 244.334 106.922L248.5 107ZM252.821 98.7457C253.374 98.756 253.899 98.9853 254.283 99.3832C254.666 99.7812 254.876 100.315 254.865 100.867C254.855 101.42 254.626 101.946 254.228 102.329C253.83 102.712 253.296 102.922 252.744 102.912L244.412 102.756C243.859 102.746 243.334 102.517 242.95 102.119C242.567 101.721 242.357 101.187 242.368 100.635C242.378 100.082 242.607 99.5565 243.005 99.1731C243.403 98.7898 243.937 98.5802 244.489 98.5905L252.821 98.7457ZM234.191 92.1476C233.681 92.1381 233.185 92.3163 232.797 92.6482C232.41 92.9801 232.157 93.4427 232.088 93.9483L232.069 94.1917L232.03 96.2747L234.113 96.3135L234.191 92.1476Z" fill="#B5FDCB" fill-opacity="0.15"/>
<g clip-path="url(#clip0_179_491)">
<path fill-rule="evenodd" clip-rule="evenodd" d="M255.986 13.0036C255.834 12.8503 255.653 12.7285 255.454 12.6452C255.254 12.5619 255.041 12.5187 254.825 12.518C254.609 12.5173 254.395 12.5592 254.195 12.6413C253.995 12.7234 253.814 12.8441 253.661 12.9964L239.714 26.8571C239.406 27.1642 239.232 27.5811 239.23 28.0164C239.229 28.4516 239.401 28.8696 239.707 29.1786L245.829 35.3393C245.981 35.4926 246.162 35.6143 246.361 35.6977C246.56 35.781 246.774 35.8242 246.99 35.8249C247.206 35.8255 247.419 35.7836 247.619 35.7015C247.819 35.6194 248.001 35.4988 248.154 35.3464L262.096 21.4893C262.405 21.1822 262.579 20.7653 262.58 20.33C262.582 19.8948 262.41 19.4768 262.104 19.1679L255.986 13.0036ZM250.511 9.83214C251.08 9.26577 251.754 8.8171 252.497 8.5118C253.239 8.20649 254.035 8.05054 254.837 8.05286C255.64 8.05518 256.434 8.21573 257.175 8.52533C257.916 8.83493 258.588 9.28749 259.154 9.85714L265.271 16.0179C266.413 17.1664 267.052 18.7214 267.047 20.3409C267.042 21.9603 266.395 23.5116 265.246 24.6536L260.532 29.3393L272.586 41.3893C273.172 41.9756 273.501 42.7708 273.501 43.6C273.501 44.4292 273.172 45.2244 272.586 45.8107C271.999 46.397 271.204 46.7264 270.375 46.7264C269.546 46.7264 268.751 46.397 268.164 45.8107L256.1 33.7429L251.304 38.5107C250.155 39.6519 248.599 40.29 246.98 40.2846C245.36 40.2793 243.809 39.6309 242.668 38.4821L236.546 32.325C235.98 31.7561 235.531 31.0812 235.226 30.3388C234.921 29.5964 234.765 28.8011 234.767 27.9984C234.769 27.1957 234.93 26.4013 235.24 25.6607C235.549 24.92 236.002 24.2477 236.571 23.6821L250.511 9.83214ZM229.304 45.0536C228.83 45.0536 228.376 45.2417 228.041 45.5766C227.706 45.9115 227.518 46.3657 227.518 46.8393V53.5357H225.732C225.14 53.5357 224.572 53.7709 224.154 54.1895C223.735 54.6081 223.5 55.1759 223.5 55.7679C223.5 56.3599 223.735 56.9276 224.154 57.3462C224.572 57.7648 225.14 58 225.732 58H252.518C253.11 58 253.678 57.7648 254.096 57.3462C254.515 56.9276 254.75 56.3599 254.75 55.7679C254.75 55.1759 254.515 54.6081 254.096 54.1895C253.678 53.7709 253.11 53.5357 252.518 53.5357H250.732V46.8393C250.732 46.3657 250.544 45.9115 250.209 45.5766C249.874 45.2417 249.42 45.0536 248.946 45.0536H229.304Z" fill="#B5FDCB" fill-opacity="0.15"/>
</g>
<path d="M167.792 125.885C168.249 125.893 168.641 126.063 168.967 126.394C169.292 126.725 169.451 127.119 169.442 127.576C169.434 128.033 169.26 128.424 168.923 128.749C168.645 129.029 168.274 129.198 167.88 129.222L167.73 129.225L126.436 128.456C125.979 128.448 125.591 128.274 125.272 127.936C125.119 127.779 124.998 127.592 124.918 127.388C124.838 127.183 124.8 126.964 124.807 126.744C124.815 126.288 124.985 125.9 125.316 125.581C125.592 125.305 125.959 125.141 126.348 125.118L126.498 125.116L167.792 125.885ZM135.556 101.37C135.984 101.378 136.314 101.502 136.544 101.741C136.746 101.951 136.857 102.223 136.877 102.556L136.879 102.703L136.87 103.201C136.862 103.616 136.739 103.939 136.499 104.17C136.289 104.371 136.007 104.482 135.653 104.501L135.496 104.504L134.416 104.484L134.122 120.295L135.202 120.316C135.577 120.323 135.876 120.419 136.1 120.603L136.191 120.687C136.393 120.896 136.504 121.168 136.524 121.502L136.526 121.648L136.517 122.146C136.509 122.575 136.385 122.901 136.146 123.125C135.936 123.321 135.655 123.429 135.301 123.447L135.143 123.449L129.832 123.351C129.403 123.343 129.077 123.222 128.852 122.989C128.655 122.786 128.548 122.508 128.531 122.154L128.528 121.997L128.537 121.499C128.545 121.099 128.665 120.783 128.897 120.551C129.101 120.35 129.38 120.239 129.734 120.22L129.89 120.217L130.988 120.238L131.283 104.423L130.185 104.404C129.81 104.397 129.513 104.301 129.294 104.118L129.205 104.033C129.009 103.824 128.902 103.547 128.884 103.203L128.881 103.051L128.89 102.553C128.898 102.152 129.018 101.836 129.25 101.605C129.454 101.403 129.733 101.292 130.087 101.273L130.243 101.27L135.556 101.37ZM145.432 101.554C145.848 101.562 146.171 101.686 146.402 101.925C146.603 102.135 146.714 102.406 146.734 102.739L146.736 102.887L146.727 103.385C146.719 103.8 146.596 104.123 146.356 104.353C146.146 104.555 145.869 104.665 145.526 104.685L145.374 104.688L144.294 104.668L143.999 120.479L145.079 120.5C145.442 120.507 145.735 120.603 145.957 120.787L146.049 120.871C146.25 121.08 146.361 121.352 146.381 121.685L146.383 121.832L146.374 122.33C146.366 122.758 146.243 123.085 146.003 123.309C145.793 123.505 145.516 123.612 145.173 123.631L145.021 123.633L139.688 123.534C139.273 123.526 138.95 123.406 138.719 123.173C138.517 122.97 138.407 122.691 138.388 122.337L138.384 122.181L138.394 121.683C138.401 121.282 138.525 120.966 138.764 120.735C138.974 120.534 139.251 120.423 139.595 120.403L139.746 120.401L140.867 120.422L141.161 104.607L140.041 104.587C139.678 104.581 139.385 104.485 139.163 104.301L139.072 104.217C138.87 104.007 138.76 103.731 138.741 103.386L138.737 103.234L138.747 102.737C138.754 102.335 138.878 102.019 139.117 101.788C139.327 101.587 139.604 101.476 139.948 101.457L140.099 101.454L145.432 101.554ZM155.31 101.738C155.725 101.746 156.048 101.87 156.278 102.109C156.48 102.319 156.591 102.59 156.612 102.923L156.613 103.071L156.604 103.569C156.596 103.984 156.473 104.307 156.233 104.537C156.024 104.739 155.747 104.849 155.403 104.869L155.251 104.872L154.172 104.852L153.878 120.663L154.957 120.684C155.32 120.691 155.613 120.787 155.835 120.971L155.925 121.055C156.127 121.264 156.238 121.536 156.259 121.869L156.26 122.016L156.251 122.514C156.243 122.942 156.119 123.269 155.88 123.493C155.671 123.689 155.394 123.796 155.05 123.815L154.898 123.817L149.566 123.718C149.15 123.71 148.827 123.59 148.596 123.357C148.395 123.154 148.284 122.875 148.265 122.521L148.262 122.365L148.272 121.867C148.279 121.466 148.402 121.151 148.642 120.919C148.851 120.718 149.128 120.607 149.472 120.587L149.624 120.585L150.745 120.606L151.039 104.791L149.919 104.771C149.556 104.765 149.263 104.669 149.04 104.485L148.95 104.401C148.748 104.192 148.638 103.915 148.618 103.57L148.615 103.418L148.624 102.921C148.632 102.519 148.755 102.203 148.995 101.973C149.204 101.771 149.481 101.66 149.825 101.641L149.977 101.638L155.31 101.738ZM165.166 101.922C165.595 101.93 165.921 102.054 166.145 102.293C166.342 102.503 166.449 102.774 166.468 103.107L166.47 103.254L166.461 103.753C166.453 104.167 166.333 104.49 166.1 104.721C165.897 104.923 165.618 105.033 165.264 105.053L165.108 105.055L164.028 105.035L163.733 120.847L164.814 120.868C165.188 120.875 165.485 120.97 165.704 121.155L165.793 121.239C165.989 121.448 166.096 121.719 166.115 122.053L166.118 122.199L166.108 122.698C166.1 123.126 165.98 123.452 165.747 123.677C165.544 123.873 165.265 123.98 164.911 123.999L164.755 124.001L159.444 123.902C159.014 123.894 158.687 123.774 158.464 123.541C158.267 123.338 158.16 123.059 158.142 122.705L158.14 122.549L158.149 122.051C158.157 121.65 158.277 121.334 158.509 121.103C158.713 120.901 158.992 120.791 159.346 120.771L159.501 120.769L160.601 120.789L160.895 104.975L159.796 104.955C159.421 104.948 159.124 104.853 158.905 104.669L158.818 104.584C158.621 104.375 158.513 104.099 158.495 103.754L158.493 103.602L158.502 103.105C158.51 102.703 158.63 102.387 158.862 102.156C159.066 101.955 159.345 101.844 159.699 101.825L159.854 101.822L165.166 101.922ZM147.888 85.5749C148.661 85.5893 149.424 85.7997 150.177 86.2061L150.428 86.3492L167.958 96.8882C168.343 97.1168 168.618 97.3676 168.785 97.6404C168.953 97.9138 169.034 98.2025 169.028 98.5066C169.02 98.9351 168.858 99.3197 168.54 99.6603C168.257 99.9622 167.871 100.126 167.381 100.151L167.192 100.154L128.056 99.4249C127.475 99.4141 127.033 99.2329 126.727 98.8813C126.422 98.5291 126.274 98.1388 126.282 97.7103C126.288 97.4068 126.379 97.1213 126.557 96.8537C126.71 96.6249 126.941 96.4158 127.25 96.2263L127.412 96.1329L145.323 86.2541C146.176 85.7853 147.032 85.559 147.89 85.575M147.823 89.186C147.624 89.1823 147.411 89.2268 147.183 89.3196L147.01 89.3985L134.345 96.1995L161.031 96.6967L148.627 89.4286C148.339 89.2715 148.071 89.1906 147.821 89.1859" fill="#B5FDCB" fill-opacity="0.15"/>
<path d="M48.1802 10.3267V13.6851H64.9751V17.0444H61.6157L67.0913 30.481H68.3335V33.8394H67.8638C67.3144 35.5035 66.2537 36.9522 64.8335 37.979C63.4133 39.0057 61.7051 39.5581 59.9526 39.5581C58.2004 39.558 56.4928 39.0056 55.0728 37.979C53.6525 36.9522 52.5918 35.5035 52.0425 33.8394H51.5386V30.481H53.0835L58.6938 17.0444H48.1802V43.9165H54.8979L56.2075 44.521L62.9253 52.9526L61.6157 55.6733H31.3843L30.0747 52.9526L36.7925 44.521L38.103 43.9165H44.8208V17.0444H34.3403L39.9497 30.481H41.4614V33.8394H40.9917C40.4421 35.5086 39.3705 36.9573 37.9351 37.9712C36.5187 38.9982 34.8135 39.5513 33.064 39.5513C31.3146 39.5512 29.6101 38.9981 28.1938 37.9712C26.7596 36.9635 25.6944 35.5121 25.1704 33.8394H24.6665V30.481H25.9429L31.3843 17.0444H28.0259V13.6851H44.8208V10.3267H48.1802ZM38.9087 47.2759L34.7437 52.314H58.2563L54.0913 47.2759H38.9087ZM55.7378 33.8394C56.186 34.5735 56.8089 35.1852 57.5513 35.6196C58.2719 36.0488 59.0974 36.2702 59.936 36.2583C60.785 36.2678 61.6212 36.0468 62.355 35.6196C63.1022 35.2032 63.7189 34.5866 64.1353 33.8394H55.7378ZM28.8657 33.8394C29.3171 34.5533 29.9406 35.1423 30.6792 35.5522C31.4061 35.9662 32.2275 36.1865 33.064 36.1909C33.911 36.1848 34.7432 35.9649 35.4829 35.5522C36.2092 35.1378 36.8212 34.5492 37.2632 33.8394H28.8657ZM56.7114 30.5474H63.4292L60.0708 22.4858L56.7114 30.5474ZM29.604 30.481H36.3228L32.9634 22.4185L29.604 30.481Z" fill="#B5FDCB" fill-opacity="0.15"/>
<g clip-path="url(#clip1_179_491)">
<path d="M148.137 47.449C148.158 45.864 148.397 44.2893 148.849 42.7699C153.328 46.6721 157.618 50.785 161.707 55.0946L161.965 55.3754L162.331 55.5157C164.258 56.1337 166.336 56.0943 168.239 55.4036C170.141 54.7129 171.761 53.41 172.843 51.6995C173.97 50.0988 174.553 48.1779 174.505 46.2205C174.457 44.2631 173.781 42.3731 172.576 40.8297L172.112 40.4944C165.055 36.7185 158.271 32.4543 151.809 27.733C145.823 22.5832 140.235 16.987 135.095 10.9925L134.164 9.87474L133.451 9.96992C131.457 9.76728 129.442 9.99061 127.54 10.6251C125.638 11.2597 123.893 12.2909 122.42 13.6506C121.623 14.6507 121.052 15.8118 120.747 17.0538C120.442 18.2958 120.41 19.5892 120.654 20.8447C120.742 21.9344 121.114 22.982 121.733 23.8829C122.353 24.7838 123.197 25.5064 124.183 25.9788C125.239 26.6102 133.116 31.2959 140.424 36.436C139.097 37.4581 137.514 38.3254 135.791 38.9276C132.612 39.7489 129.277 39.7619 126.092 38.9654L133.117 43.3393L130.57 47.8727C134.067 47.288 137.464 46.2143 140.662 44.6834C141.943 43.7395 143.082 42.6157 144.043 41.3468C143.14 42.7476 142.412 44.3108 141.904 45.9582C141.246 49.0097 140.955 52.3558 141.095 55.7641L144.624 52.3008L150.81 57.7799C149.546 55.1195 148.708 52.277 148.326 49.3565C148.237 48.6874 148.171 48.0215 148.128 47.3588L148.137 47.449ZM170.346 43.0634C170.852 43.8219 171.177 44.6869 171.295 45.5912C171.505 47.1585 171.088 48.6645 170.239 49.8593C169.579 50.9507 168.59 51.8047 167.414 52.2988C166.239 52.793 164.937 52.9017 163.695 52.6094C162.543 51.231 157.406 46.0532 151.736 41.1357C153.268 40.7697 154.605 39.8389 155.48 38.5294C155.859 37.9448 156.112 37.2875 156.222 36.5996C156.332 35.9116 156.297 35.2083 156.119 34.5346C160.729 37.5932 165.476 40.4391 170.346 43.0634ZM133.505 18.1599C133.702 18.3762 133.829 18.6475 133.868 18.9375L133.878 19.0623L133.906 19.2729C133.819 19.8489 133.604 20.3662 133.288 20.8088L130.701 18.4084C131.346 17.9854 132.098 17.7548 132.869 17.7436C133.125 17.7965 133.351 17.9443 133.502 18.1572L133.505 18.1599ZM125.711 23.2998C125.131 23.067 124.634 22.6657 124.284 22.1476C123.934 21.6294 123.748 21.0184 123.749 20.3933C123.559 19.5611 123.555 18.697 123.738 17.863C123.921 17.0291 124.286 16.246 124.808 15.5701C126.409 14.1525 128.399 13.2466 130.52 12.9689C131.298 12.867 132.063 12.8458 132.813 12.9054L134.52 14.9031C134.048 14.6698 133.511 14.5209 132.948 14.4857C130.773 14.6042 128.707 15.4766 127.105 16.9531L125.888 18.2317L130.928 22.9181C129.276 23.6744 127.406 23.8055 125.665 23.287L125.711 23.2998ZM133.656 24.9498C135.366 23.6453 136.543 21.7619 136.965 19.6525C136.972 19.4276 136.96 19.2432 136.935 19.0574C136.911 18.8715 136.874 18.6904 136.831 18.5132C136.823 18.1477 136.774 17.7841 136.686 17.4291C140.178 21.3295 143.885 25.0319 147.79 28.519C147.735 29.7811 147.352 31.1376 146.607 32.2428C145.761 33.2922 144.517 34.0354 143.061 34.2298L142.769 34.2625C138.849 31.4774 134.811 28.8612 130.668 26.4209C131.765 26.1127 132.791 25.5933 133.689 24.8918L133.656 24.9498Z" fill="#B5FDCB" fill-opacity="0.15"/>
</g>
</g>
</pattern><clipPath id="clip0_179_491">
<rect width="50" height="50" fill="white" transform="translate(223.5 8)"/>
</clipPath>
<clipPath id="clip1_179_491">
<rect width="50" height="50" fill="white" transform="translate(168.969 4.90974) rotate(82.3908)"/>
</clipPath>
</defs>
</svg>
